<svg xmlns="http://www.w3.org/2000/svg" viewBox="0 0 512 512">
  <rect width="512" height="512" rx="112" fill="#0b141a"/>
  <circle cx="256" cy="256" r="172" fill="#00a884"/>
  <path d="M164 378l24-70c-15-26-20-57-12-87 15-59 75-96 134-81 59 15 96 75 81 134-15 59-75 96-134 81-24-6-45-19-61-37l-32 60z" fill="#fff" opacity=".96"/>
  <path d="M210 205c7-8 16-9 22-1l12 18c4 6 3 13-2 18l-6 6c10 18 25 31 45 39l7-7c5-5 12-6 18-2l19 11c8 5 8 15 1 23-12 14-31 17-55 8-35-13-63-39-78-74-10-22-7-39 17-39z" fill="#00a884"/>
</svg>
